<svg xmlns="http://www.w3.org/2000/svg" style="fill:#5cb6f9" version="1.0" viewBox="55.9 75 88.3 49.9"><circle cx="85.92" cy="76.93" r="1.9" style="fill:inherit"/><circle cx="95.31" cy="76.93" r="1.9" style="fill:inherit"/><circle cx="104.69" cy="76.93" r="1.9" style="fill:inherit"/><circle cx="114.08" cy="76.93" r="1.9" style="fill:inherit"/><circle cx="123.47" cy="76.93" r="1.9" style="fill:inherit"/><circle cx="132.85" cy="76.93" r="1.9" style="fill:inherit"/><circle cx="142.24" cy="76.93" r="1.9" style="fill:inherit"/><circle cx="76.53" cy="86.16" r="1.9" style="fill:inherit"/><circle cx="85.92" cy="86.16" r="1.9" style="fill:inherit"/><circle cx="95.31" cy="86.16" r="1.9" style="fill:inherit"/><circle cx="104.69" cy="86.16" r="1.9" style="fill:inherit"/><circle cx="114.08" cy="86.16" r="1.9" style="fill:inherit"/><circle cx="123.47" cy="86.16" r="1.9" style="fill:inherit"/><circle cx="132.85" cy="86.16" r="1.9" style="fill:inherit"/><circle cx="142.24" cy="86.16" r="1.9" style="fill:inherit"/><circle cx="67.15" cy="95.39" r="1.9" style="fill:inherit"/><circle cx="76.53" cy="95.39" r="1.9" style="fill:inherit"/><circle cx="85.92" cy="95.39" r="1.9" style="fill:inherit"/><circle cx="95.31" cy="95.39" r="1.9" style="fill:inherit"/><circle cx="104.69" cy="95.39" r="1.9" style="fill:inherit"/><circle cx="114.08" cy="95.39" r="1.9" style="fill:inherit"/><circle cx="123.47" cy="95.39" r="1.9" style="fill:inherit"/><circle cx="132.85" cy="95.39" r="1.9" style="fill:inherit"/><circle cx="142.24" cy="95.39" r="1.9" style="fill:inherit"/><circle cx="57.76" cy="104.61" r="1.9" style="fill:inherit"/><circle cx="67.15" cy="104.61" r="1.9" style="fill:inherit"/><circle cx="76.53" cy="104.61" r="1.9" style="fill:inherit"/><circle cx="85.92" cy="104.61" r="1.9" style="fill:inherit"/><circle cx="95.31" cy="104.61" r="1.9" style="fill:inherit"/><circle cx="104.69" cy="104.61" r="1.9" style="fill:inherit"/><circle cx="114.08" cy="104.61" r="1.9" style="fill:inherit"/><circle cx="123.47" cy="104.61" r="1.9" style="fill:inherit"/><circle cx="132.85" cy="104.61" r="1.9" style="fill:inherit"/><circle cx="57.76" cy="113.84" r="1.9" style="fill:inherit"/><circle cx="67.15" cy="113.84" r="1.9" style="fill:inherit"/><circle cx="76.53" cy="113.84" r="1.9" style="fill:inherit"/><circle cx="85.92" cy="113.84" r="1.9" style="fill:inherit"/><circle cx="95.31" cy="113.84" r="1.9" style="fill:inherit"/><circle cx="104.69" cy="113.84" r="1.9" style="fill:inherit"/><circle cx="114.08" cy="113.84" r="1.9" style="fill:inherit"/><circle cx="123.47" cy="113.84" r="1.9" style="fill:inherit"/><circle cx="57.76" cy="123.07" r="1.9" style="fill:inherit"/><circle cx="67.15" cy="123.07" r="1.9" style="fill:inherit"/><circle cx="76.53" cy="123.07" r="1.9" style="fill:inherit"/><circle cx="85.92" cy="123.07" r="1.9" style="fill:inherit"/><circle cx="95.31" cy="123.07" r="1.9" style="fill:inherit"/><circle cx="104.69" cy="123.07" r="1.9" style="fill:inherit"/><circle cx="114.08" cy="123.07" r="1.9" style="fill:inherit"/></svg>