<svg xmlns="http://www.w3.org/2000/svg" width="156.2" height="156.2" version="1.0"><path fill="inherit" d="M81.095 21.78h-6V0h6v21.78zm0 112.632h-6v21.778h6v-21.778zm75.096-59.316h-21.78v6h21.78v-6zm-134.412 0H0v6h21.78v-6zm113.659-50.101-4.242-4.243-15.4 15.4 4.242 4.243 15.4-15.4zm-95.043 95.043-4.242-4.242-15.4 15.4 4.242 4.242 15.4-15.4zm95.043 11.158-15.4-15.4-4.243 4.242 15.4 15.4 4.243-4.242zM40.395 36.153l-15.4-15.4-4.243 4.242 15.4 15.4 4.243-4.242zm72.186-28.191-5.483-2.439-8.852 19.9 5.482 2.438 8.853-19.9zM57.945 130.769l-5.482-2.439-8.853 19.898 5.483 2.44 8.852-19.9zm92.722-23.67-19.898-8.853-2.44 5.482 19.899 8.852 2.44-5.482zM27.861 52.462 7.96 43.61l-2.438 5.483 19.9 8.853 2.438-5.483zm124.21.425-2.152-5.6-20.33 7.81 2.153 5.6 20.33-7.81zm-125.47 48.205-2.151-5.6-20.33 7.81 2.151 5.6 20.33-7.81zm82.303 48.827-7.81-20.33-5.602 2.151 7.81 20.331 5.602-2.152zM60.699 24.45l-7.81-20.33-5.601 2.151 7.81 20.33 5.6-2.15z"/></svg>