<svg width="50" height="51" viewBox="0 0 50 51" fill="none" xmlns="http://www.w3.org/2000/svg">
<g clip-path="url(#clip0_306_6)">
<path d="M25.9587 7.17178H24.0381V0.199951H25.9587V7.17178ZM25.9587 43.2256H24.0381V50.1967H25.9587V43.2256ZM49.9971 24.2384H43.0253V26.159H49.9971V24.2384ZM6.97151 24.2384H0V26.159H6.97183V24.2384H6.97151ZM43.354 8.20091L41.9962 6.84272L37.0666 11.7723L38.4245 13.1305L43.354 8.20091ZM12.9305 38.6244L11.5727 37.2665L6.64309 42.1961L8.00096 43.554L12.9305 38.6244ZM43.354 42.1961L38.4245 37.2665L37.0663 38.6244L41.9958 43.554L43.354 42.1961ZM12.9305 11.7726L8.00096 6.84304L6.64277 8.20091L11.5723 13.1305L12.9305 11.7726ZM36.0375 2.74861L34.2823 1.96788L31.4488 8.33792L33.2036 9.11832L36.0375 2.74861ZM18.5483 42.0594L16.7935 41.2787L13.9597 47.6481L15.7148 48.4291L18.5483 42.0594ZM48.2289 34.4826L41.8595 31.6487L41.0784 33.4035L47.4481 36.2371L48.2292 34.4823L48.2289 34.4826ZM8.91837 16.9932L2.54802 14.1596L1.76761 15.9147L8.13764 18.7486L8.91805 16.9935L8.91837 16.9932ZM48.6783 17.1292L47.9894 15.3366L41.4818 17.8366L42.1709 19.6292L48.6786 17.1292H48.6783ZM8.51505 32.5597L7.82651 30.7672L1.31882 33.2672L2.00736 35.0597L8.51505 32.5597ZM34.8604 48.1894L32.3604 41.6817L30.5672 42.3702L33.0672 48.8782L34.8604 48.1894ZM19.4299 8.02646L16.9299 1.51877L15.137 2.20731L17.637 8.715L19.4296 8.02678L19.4299 8.02646Z" fill="black"/>
</g>
<defs>
<clipPath id="clip0_306_6">
<rect width="50" height="50" fill="white" transform="translate(0 0.199951)"/>
</clipPath>
</defs>
</svg>
